<svg id="Layer_1" data-name="Layer 1" xmlns="http://www.w3.org/2000/svg" viewBox="0 0 46 46"><title>Logo</title><path d="M28.1,12.75a.67.67,0,0,1-.68-.54.64.64,0,0,1,.57-.74L43.06,9.14a.7.7,0,0,1,.81.53.66.66,0,0,1-.58.74L28.22,12.74Z"/><path d="M2.61,16.61a.68.68,0,0,1-.68-.54.65.65,0,0,1,.57-.75L17.69,13a.68.68,0,0,1,.8.53.64.64,0,0,1-.57.74L2.73,16.6Z"/><path d="M37.41,33.1c-4.74,0-8.59-3.57-8.59-8a.67.67,0,0,1,.69-.64H45.3a.67.67,0,0,1,.7.64C46,29.53,42.15,33.1,37.41,33.1Zm-7.17-7.31a7,7,0,0,0,7.17,6,7,7,0,0,0,7.16-6Z"/><path d="M29.51,25.79a.88.88,0,0,1-.32-.07.63.63,0,0,1-.29-.88l7.89-14a.76.76,0,0,1,1.24,0l7.89,14a.63.63,0,0,1-.29.88.74.74,0,0,1-1-.28l-7.27-12.9-7.28,12.9A.71.71,0,0,1,29.51,25.79Z"/><path d="M8.59,37.27c-4.74,0-8.59-3.57-8.59-8a.67.67,0,0,1,.7-.65H16.49a.67.67,0,0,1,.69.65C17.18,33.7,13.33,37.27,8.59,37.27ZM1.43,30a7,7,0,0,0,7.16,6,7,7,0,0,0,7.17-6Z"/><path d="M16.49,30a.69.69,0,0,1-.62-.35L8.59,16.71,1.32,29.61a.74.74,0,0,1-.95.28A.62.62,0,0,1,.08,29L8,15a.76.76,0,0,1,1.24,0L17.1,29a.62.62,0,0,1-.29.87A.71.71,0,0,1,16.49,30Z"/><path d="M23,17.55A4.78,4.78,0,0,1,18.05,13,4.78,4.78,0,0,1,23,8.39,4.78,4.78,0,0,1,28,13,4.78,4.78,0,0,1,23,17.55Zm0-8.32a3.87,3.87,0,0,0-4,3.71,3.88,3.88,0,0,0,4,3.72,3.88,3.88,0,0,0,4-3.72A3.87,3.87,0,0,0,23,9.23Z"/><path d="M23,8.86a.68.68,0,0,1-.7-.65V6.64a.7.7,0,0,1,1.4,0V8.21A.68.68,0,0,1,23,8.86Z"/><path d="M25.62,31.2h0V17.5a.47.47,0,0,0-.14-.33L24.2,16s0,0,0,0l1.3-1.4a.45.45,0,0,0,.06-.51L23.42,9.85a.44.44,0,0,0-.08-.11l0,0a.41.41,0,0,0-.11-.07l0,0a.4.4,0,0,0-.15,0,.39.39,0,0,0-.18,0,.42.42,0,0,0-.14.09.36.36,0,0,0-.08.12L20.49,14a.42.42,0,0,0,.07.5l1.28,1.39s0,0,0,0l-1.24,1.14h0a.48.48,0,0,0-.13.32q0,11,0,21.94h5.17C25.62,36.63,25.62,33.92,25.62,31.2ZM22.57,11.92v1.3h0a.66.66,0,0,0-.22.48.68.68,0,0,0,.65.69.67.67,0,0,0,.47-1.17h0v-1.3h0l1.14,2.25h0L23,15.9h0l-1.59-1.73h0l1.14-2.25Zm2.15,26.67H21.35v-21h0l1.11-1h0l.24.27A.47.47,0,0,0,23,17a.4.4,0,0,0,.33-.14l.23-.25h0l1.13,1.07h0v20.9Zm0-.13"/></svg>